<svg width="255" height="170" viewBox="0 0 255 170" fill="none" xmlns="http://www.w3.org/2000/svg">
<path fill-rule="evenodd" clip-rule="evenodd" d="M2 4C2 2.89543 2.89543 2 4 2H241.654C242.759 2 243.654 2.89543 243.654 4V12.6858C243.654 13.7904 242.759 14.6858 241.654 14.6858H194.249C192.039 14.6858 190.249 16.4767 190.249 18.6858V56.7461C190.249 58.9552 192.039 60.7461 194.249 60.7461H241.654C242.759 60.7461 243.654 61.6415 243.654 62.7461V74.0995C243.654 75.204 242.759 76.0995 241.654 76.0995H207.599C205.39 76.0995 203.599 77.8903 203.599 80.0995V109.482C203.599 111.691 205.39 113.482 207.599 113.482H241.654C242.759 113.482 243.654 114.377 243.654 115.482V124.832C243.654 125.937 242.759 126.832 241.654 126.832H207.599C205.39 126.832 203.599 128.623 203.599 130.832V156.209C203.599 157.314 202.704 158.209 201.599 158.209H172.223C171.118 158.209 170.223 157.314 170.223 156.209V130.167C170.223 129.063 169.327 128.167 168.223 128.167H150.194C149.089 128.167 148.194 129.063 148.194 130.167V156.209C148.194 157.314 147.298 158.209 146.194 158.209H143.518C142.414 158.209 141.518 157.314 141.518 156.209V93.7878C141.518 93.2355 141.071 92.7878 140.518 92.7878H134.508C133.956 92.7878 133.508 93.2355 133.508 93.7878V101.133C133.508 101.686 133.956 102.133 134.508 102.133H135.178C135.73 102.133 136.178 102.581 136.178 103.133V147.779C136.178 148.045 136.073 148.299 135.885 148.486L133.801 150.571C133.613 150.758 133.508 151.013 133.508 151.278V157.792C133.508 157.993 133.37 158.209 133.169 158.209H116.149C115.045 158.209 114.149 157.314 114.149 156.209V143.518C114.149 142.414 113.254 141.518 112.149 141.518H96.7905C95.686 141.518 94.7905 142.414 94.7905 143.518V156.209C94.7905 157.314 93.8951 158.209 92.7905 158.209H86.7775C85.6729 158.209 84.7775 157.314 84.7775 156.209V143.518C84.7775 142.414 83.882 141.518 82.7775 141.518H66.0837C64.9792 141.518 64.0837 142.414 64.0837 143.518V156.209C64.0837 157.314 63.1883 158.209 62.0837 158.209H50.0628C48.9583 158.209 48.0628 157.314 48.0628 156.209V144.186C48.0628 143.081 47.1674 142.186 46.0628 142.186H21.3613C20.6239 142.186 20.0262 142.784 20.0262 143.521V156.209C20.0262 157.314 19.1307 158.209 18.0262 158.209H4C2.89543 158.209 2 157.314 2 156.209V4ZM64.0837 162.209C64.0837 161.105 63.1883 160.209 62.0837 160.209H50.0628C48.9583 160.209 48.0628 161.105 48.0628 162.209V164.885C48.0628 165.989 47.1674 166.885 46.0628 166.885H22.0262C20.9216 166.885 20.0262 165.989 20.0262 164.885V162.209C20.0262 161.105 19.1307 160.209 18.0262 160.209H2C0.895431 160.209 0 159.314 0 158.209V2C0 0.89543 0.895431 0 2 0H243.654C244.759 0 245.654 0.895431 245.654 2V12.6858C245.654 13.7904 246.55 14.6858 247.654 14.6858H251C253.209 14.6858 255 16.4767 255 18.6858V56.7461C255 58.9552 253.209 60.7461 251 60.7461H247.654C246.55 60.7461 245.654 61.6415 245.654 62.7461V74.0995C245.654 75.204 246.55 76.0995 247.654 76.0995H251C253.209 76.0995 255 77.8903 255 80.0995V109.482C255 111.691 253.209 113.482 251 113.482H247.654C246.55 113.482 245.654 114.377 245.654 115.482V124.832C245.654 125.937 246.55 126.832 247.654 126.832H251C253.209 126.832 255 128.623 255 130.832V159.547C255 161.756 253.209 163.547 251 163.547H207.599C206.214 163.547 204.993 162.843 204.275 161.772C203.73 160.96 202.937 160.209 201.96 160.209H171.891C170.97 160.209 170.223 160.957 170.223 161.878V162.212C170.223 162.949 169.625 163.547 168.887 163.547C168.15 163.547 167.552 164.145 167.552 164.882V167.555C167.552 168.659 166.657 169.555 165.552 169.555H152.864C151.759 169.555 150.864 168.659 150.864 167.555V166.217C150.864 165.48 150.266 164.882 149.529 164.882C148.791 164.882 148.194 164.284 148.194 163.547V162.209C148.194 161.105 147.298 160.209 146.194 160.209H142.693C141.955 160.209 141.256 160.877 140.518 160.877H136.592C136.327 160.877 136.073 160.771 135.885 160.584C135.645 160.344 135.32 160.209 134.981 160.209H116.149C115.045 160.209 114.149 161.105 114.149 162.209V164.217C114.149 165.322 113.254 166.217 112.149 166.217H96.7905C95.686 166.217 94.7905 165.322 94.7905 164.217V162.209C94.7905 161.105 93.8951 160.209 92.7905 160.209H86.7775C85.6729 160.209 84.7775 161.105 84.7775 162.209V164.217C84.7775 165.322 83.882 166.217 82.7775 166.217H66.0837C64.9792 166.217 64.0837 165.322 64.0837 164.217V162.209ZM10.6807 60.0786C10.6807 59.3413 11.2785 58.7435 12.0158 58.7435C12.7531 58.7435 13.3509 58.1458 13.3509 57.4085V52.0655C13.3509 50.961 12.4554 50.0655 11.3509 50.0655H6.67286C5.56829 50.0655 4.67286 50.961 4.67286 52.0655V113.484C4.67286 114.589 5.56829 115.484 6.67286 115.484H11.3509C12.4554 115.484 13.3509 114.589 13.3509 113.484V108.141C13.3509 107.404 12.7531 106.806 12.0158 106.806C11.2785 106.806 10.6807 106.209 10.6807 105.471V60.0786ZM19.3586 4.67026V13.3535C19.3586 14.4581 20.254 15.3535 21.3586 15.3535H169.558C170.662 15.3535 171.558 14.4581 171.558 13.3535V4.67025C171.558 3.56569 170.662 2.67026 169.558 2.67026H21.3586C20.254 2.67026 19.3586 3.56569 19.3586 4.67026ZM16.6884 52.7383V22.0263C16.6884 20.9217 17.5839 20.0263 18.6884 20.0263H44.7277C45.8323 20.0263 46.7277 20.9217 46.7277 22.0263V52.7383C46.7277 53.8429 45.8323 54.7383 44.7277 54.7383H18.6884C17.5839 54.7383 16.6884 53.8429 16.6884 52.7383ZM160.877 44.0551V56.7436C160.877 57.8481 161.772 58.7436 162.877 58.7436H176.9C178.005 58.7436 178.9 57.8481 178.9 56.7436V44.0551C178.9 42.9505 178.005 42.0551 176.9 42.0551H162.877C161.772 42.0551 160.877 42.9505 160.877 44.0551ZM160.877 80.7697V99.4661C160.877 100.571 161.772 101.466 162.877 101.466H181.573C182.678 101.466 183.573 100.571 183.573 99.4661V80.7697C183.573 79.6652 182.678 78.7697 181.573 78.7697H162.877C161.772 78.7697 160.877 79.6652 160.877 80.7697ZM115.484 84.7802V46.7252C115.484 45.6207 116.38 44.7252 117.484 44.7252H144.859C145.963 44.7252 146.859 45.6207 146.859 46.7252V84.7802C146.859 85.8848 145.963 86.7802 144.859 86.7802H117.484C116.38 86.7802 115.484 85.8848 115.484 84.7802ZM61.4136 46.7252V84.7802C61.4136 85.8848 62.309 86.7802 63.4136 86.7802H105.474C106.578 86.7802 107.474 85.8848 107.474 84.7802V46.7252C107.474 45.6207 106.578 44.7252 105.474 44.7252H63.4136C62.309 44.7252 61.4136 45.6207 61.4136 46.7252ZM34.7146 119.49H24.0288C22.9242 119.49 22.0288 120.385 22.0288 121.49V129.505C22.0288 130.61 22.9242 131.505 24.0288 131.505H34.7146C35.8192 131.505 36.7146 130.61 36.7146 129.505V121.49C36.7146 120.385 35.8192 119.49 34.7146 119.49ZM56.0706 132.84H59.4136C60.5181 132.84 61.4136 133.736 61.4136 134.84V142.189C61.4136 143.293 60.5181 144.189 59.4136 144.189H56.0706C54.9661 144.189 54.0706 143.293 54.0706 142.189V134.84C54.0706 133.736 54.9661 132.84 56.0706 132.84ZM13.3507 104.136C13.3507 103.399 13.9485 102.801 14.6858 102.801H20.0261C20.7635 102.801 21.3612 103.399 21.3612 104.136C21.3612 104.873 20.7635 105.471 20.0261 105.471H14.6858C13.9485 105.471 13.3507 104.873 13.3507 104.136ZM126.832 145.524C126.095 145.524 125.497 146.121 125.497 146.859C125.497 147.596 126.095 148.194 126.832 148.194H132.173C132.91 148.194 133.508 147.596 133.508 146.859C133.508 146.121 132.91 145.524 132.173 145.524H126.832ZM13.3507 98.7959C13.3507 98.0586 13.9485 97.4608 14.6858 97.4608H20.0261C20.7635 97.4608 21.3612 98.0586 21.3612 98.7959C21.3612 99.5332 20.7635 100.131 20.0261 100.131H14.6858C13.9485 100.131 13.3507 99.5332 13.3507 98.7959ZM126.832 140.183C126.095 140.183 125.497 140.781 125.497 141.518C125.497 142.255 126.095 142.853 126.832 142.853H132.173C132.91 142.853 133.508 142.255 133.508 141.518C133.508 140.781 132.91 140.183 132.173 140.183H126.832ZM13.3507 93.4554C13.3507 92.718 13.9485 92.1203 14.6858 92.1203H20.0261C20.7635 92.1203 21.3612 92.718 21.3612 93.4554C21.3612 94.1927 20.7635 94.7905 20.0261 94.7905H14.6858C13.9485 94.7905 13.3507 94.1927 13.3507 93.4554ZM126.832 134.843C126.095 134.843 125.497 135.441 125.497 136.178C125.497 136.915 126.095 137.513 126.832 137.513H132.173C132.91 137.513 133.508 136.915 133.508 136.178C133.508 135.441 132.91 134.843 132.173 134.843H126.832ZM13.3507 88.1152C13.3507 87.3779 13.9485 86.7802 14.6858 86.7802H20.0261C20.7635 86.7802 21.3612 87.3779 21.3612 88.1152C21.3612 88.8526 20.7635 89.4503 20.0261 89.4503H14.6858C13.9485 89.4503 13.3507 88.8526 13.3507 88.1152ZM126.832 129.503C126.095 129.503 125.497 130.101 125.497 130.838C125.497 131.575 126.095 132.173 126.832 132.173H132.173C132.91 132.173 133.508 131.575 133.508 130.838C133.508 130.101 132.91 129.503 132.173 129.503H126.832ZM13.3507 82.7747C13.3507 82.0374 13.9485 81.4396 14.6858 81.4396H20.0261C20.7635 81.4396 21.3612 82.0374 21.3612 82.7747C21.3612 83.5121 20.7635 84.1098 20.0261 84.1098H14.6858C13.9485 84.1098 13.3507 83.5121 13.3507 82.7747ZM126.832 124.162C126.095 124.162 125.497 124.76 125.497 125.497C125.497 126.235 126.095 126.832 126.832 126.832H132.173C132.91 126.832 133.508 126.235 133.508 125.497C133.508 124.76 132.91 124.162 132.173 124.162H126.832ZM13.3507 77.4346C13.3507 76.6972 13.9485 76.0995 14.6858 76.0995H20.0261C20.7635 76.0995 21.3612 76.6972 21.3612 77.4346C21.3612 78.1719 20.7635 78.7697 20.0261 78.7697H14.6858C13.9485 78.7697 13.3507 78.1719 13.3507 77.4346ZM126.832 118.822C126.095 118.822 125.497 119.42 125.497 120.157C125.497 120.895 126.095 121.492 126.832 121.492H132.173C132.91 121.492 133.508 120.895 133.508 120.157C133.508 119.42 132.91 118.822 132.173 118.822H126.832ZM13.3507 72.0941C13.3507 71.3567 13.9485 70.759 14.6858 70.759H20.0261C20.7635 70.759 21.3612 71.3567 21.3612 72.0941C21.3612 72.8314 20.7635 73.4291 20.0261 73.4291H14.6858C13.9485 73.4291 13.3507 72.8314 13.3507 72.0941ZM126.832 113.482C126.095 113.482 125.497 114.079 125.497 114.817C125.497 115.554 126.095 116.152 126.832 116.152H132.173C132.91 116.152 133.508 115.554 133.508 114.817C133.508 114.079 132.91 113.482 132.173 113.482H126.832ZM13.3507 66.7539C13.3507 66.0166 13.9485 65.4189 14.6858 65.4189H20.0261C20.7635 65.4189 21.3612 66.0166 21.3612 66.7539C21.3612 67.4913 20.7635 68.089 20.0261 68.089H14.6858C13.9485 68.089 13.3507 67.4913 13.3507 66.7539ZM126.832 108.141C126.095 108.141 125.497 108.739 125.497 109.477C125.497 110.214 126.095 110.812 126.832 110.812H132.173C132.91 110.812 133.508 110.214 133.508 109.477C133.508 108.739 132.91 108.141 132.173 108.141H126.832ZM13.3507 61.4134C13.3507 60.6761 13.9485 60.0783 14.6858 60.0783H20.0261C20.7635 60.0783 21.3612 60.6761 21.3612 61.4134C21.3612 62.1507 20.7635 62.7485 20.0261 62.7485H14.6858C13.9485 62.7485 13.3507 62.1507 13.3507 61.4134ZM126.832 102.801C126.095 102.801 125.497 103.399 125.497 104.136C125.497 104.873 126.095 105.471 126.832 105.471H132.173C132.91 105.471 133.508 104.873 133.508 104.136C133.508 103.399 132.91 102.801 132.173 102.801H126.832Z" fill="#999999"/>
</svg>
