<svg width="98" height="123" viewBox="0 0 98 123" fill="none" xmlns="http://www.w3.org/2000/svg">
<path fill-rule="evenodd" clip-rule="evenodd" d="M18.113 6.87894C18.8851 4.56248 21.053 3 23.4947 3H56.9818H87.6388C91.2287 3 94.1388 5.91015 94.1388 9.50001V104.949H87.6271C86.7986 104.949 86.1271 105.62 86.1271 106.449C86.1271 107.277 86.7986 107.949 87.6271 107.949H94.1388V112.876C94.1388 116.466 91.2287 119.376 87.6389 119.376H48.5694H9.5C5.91015 119.376 3 116.466 3 112.876V107.949H80.817C81.6455 107.949 82.317 107.277 82.317 106.449C82.317 105.62 81.6455 104.949 80.817 104.949H3V91.3413C3 89.6174 3.68482 87.9641 4.90381 86.7451L7.02756 84.6214C8.80915 82.8398 9.81004 80.4234 9.81004 77.9039V69.8007C9.81004 67.0918 7.61399 64.8957 4.90502 64.8957C3.85291 64.8957 3 64.0428 3 62.9907V55.2882C3 53.5642 3.68482 51.9109 4.9038 50.692L15.0394 40.5564C16.821 38.7748 17.8219 36.3584 17.8219 33.8389V8.67286C17.8219 8.06313 17.9202 7.45738 18.113 6.87894ZM23.4947 0C19.7617 0 16.4474 2.38877 15.2669 5.93026C14.9721 6.8146 14.8219 7.74068 14.8219 8.67286V33.8389C14.8219 35.5628 14.137 37.2161 12.9181 38.4351L2.78248 48.5706C1.00089 50.3522 0 52.7686 0 55.2882V62.9907C0 65.6997 2.19605 67.8957 4.90502 67.8957C5.95714 67.8957 6.81004 68.7486 6.81004 69.8007V77.9039C6.81004 79.6278 6.12523 81.2811 4.90624 82.5001L2.78249 84.6238C1.00089 86.4054 0 88.8218 0 91.3413V112.876C0 118.123 4.25329 122.376 9.5 122.376H48.5694H87.6389C92.8856 122.376 97.1388 118.123 97.1388 112.876V9.50001C97.1388 4.2533 92.8856 0 87.6388 0H56.9818H23.4947ZM30 13.9181V32.3453C30 34.1169 31.4361 35.553 33.2077 35.553C34.9792 35.553 36.4154 34.1169 36.4154 32.3453V13.9181C36.4154 12.1466 34.9792 10.7104 33.2077 10.7104C31.4361 10.7104 30 12.1466 30 13.9181ZM28 13.9181V32.3453C28 35.2214 30.3316 37.553 33.2077 37.553C36.0838 37.553 38.4154 35.2214 38.4154 32.3453V13.9181C38.4154 11.042 36.0838 8.71045 33.2077 8.71045C30.3316 8.71045 28 11.042 28 13.9181ZM53 14.2077V32.6349C53 34.4064 54.4361 35.8425 56.2077 35.8425C57.9792 35.8425 59.4154 34.4064 59.4154 32.6349V14.2077C59.4154 12.4361 57.9792 11 56.2077 11C54.4361 11 53 12.4361 53 14.2077ZM51 14.2077V32.6349C51 35.511 53.3316 37.8425 56.2077 37.8425C59.0838 37.8425 61.4154 35.511 61.4154 32.6349V14.2077C61.4154 11.3316 59.0838 9 56.2077 9C53.3316 9 51 11.3316 51 14.2077ZM76 32.6349V14.2077C76 12.4361 77.4361 11 79.2077 11C80.9792 11 82.4154 12.4361 82.4154 14.2077V32.6349C82.4154 34.4064 80.9792 35.8425 79.2077 35.8425C77.4361 35.8425 76 34.4064 76 32.6349ZM74 32.6349V14.2077C74 11.3316 76.3316 9 79.2077 9C82.0838 9 84.4154 11.3316 84.4154 14.2077V32.6349C84.4154 35.511 82.0838 37.8425 79.2077 37.8425C76.3316 37.8425 74 35.511 74 32.6349Z" fill="#999999"/>
</svg>
